<svg width="256" height="256" viewBox="0 0 256 256" fill="none" xmlns="http://www.w3.org/2000/svg">
<rect opacity="0.8" x="25" y="118" width="206" height="20" rx="2" fill="#8B8B8B"/>
<rect opacity="0.6" x="64" y="96" width="64" height="16" rx="2" transform="rotate(90 64 96)" fill="#8B8B8B"/>
<rect opacity="0.6" width="64" height="16" rx="2" transform="matrix(4.37114e-08 1 1 -4.37114e-08 192 96)" fill="#8B8B8B"/>
<rect opacity="0.7" x="80" y="88" width="80" height="16" rx="2" transform="rotate(90 80 88)" fill="#8B8B8B"/>
<rect opacity="0.7" width="80" height="16" rx="2" transform="matrix(4.37114e-08 1 1 -4.37114e-08 176 88)" fill="#8B8B8B"/>
<rect opacity="0.8" x="96" y="80" width="96" height="16" rx="2" transform="rotate(90 96 80)" fill="#8B8B8B"/>
<rect opacity="0.8" width="96" height="16" rx="2" transform="matrix(4.37114e-08 1 1 -4.37114e-08 160 80)" fill="#8B8B8B"/>
</svg>
